<svg width="86" height="105" viewBox="0 0 86 105" fill="none" xmlns="http://www.w3.org/2000/svg">
<path d="M30.8087 104.626C28.6238 104.626 26.333 103.557 24.407 101.611C23.4825 100.677 22.667 99.5718 21.9125 98.2302C21.2247 96.9998 20.6904 95.7523 20.3235 94.5229C19.8026 92.7789 19.3137 91.0006 18.8414 89.2803C18.5386 88.1796 18.2259 87.0417 17.9091 85.9291C14.0055 72.214 9.01866 58.9698 3.08616 46.5648C1.25266 42.736 -1.02938 37.9704 0.504901 33.5794C0.823747 32.6632 1.30589 31.8069 1.7715 30.979C2.11515 30.3677 2.47069 29.7362 2.75801 29.0845C4.44474 25.2279 3.6608 20.8106 2.78953 17.3937C2.41229 15.9054 2.0242 13.9846 2.37663 12.3314C2.74974 10.5832 3.86751 9.45613 5.79351 8.88458C7.73604 8.3089 9.80105 8.5735 11.7973 8.82878C12.1002 8.86754 12.4133 8.90731 12.7203 8.944C17.7102 9.53622 23.1316 9.29851 29.2951 8.21588C34.7992 7.24952 40.3984 5.70905 45.8136 4.21972C47.6481 3.71484 49.5447 3.19395 51.4159 2.69992L52.2288 2.48493C54.2881 1.94026 56.4177 1.37748 58.5049 0.892238C60.8144 0.355316 63.2773 -0.150598 65.7914 0.0416394C68.5783 0.258682 70.9849 1.35269 72.5672 3.12314C74.6193 5.41759 75.0725 8.62155 75.0911 10.9057C75.1025 12.3686 74.964 13.8445 74.8296 15.2708C74.7118 16.5245 74.5899 17.8211 74.5697 19.1089C74.4849 24.5453 76.2786 30.1734 79.4898 34.5504C80.0991 35.3798 80.7756 36.1963 81.4298 36.9849C83.2772 39.2117 85.1872 41.5154 85.7738 44.3855C86.1587 46.2655 85.9768 48.389 85.2012 51.0689C83.9335 55.448 81.8267 59.7155 78.7602 64.1157C76.3474 67.5771 73.3403 71.1247 69.295 75.28C62.174 82.5938 54.4493 89.0715 46.5009 95.6123C43.221 98.3108 39.8305 101.101 36.0214 103.181C34.6989 103.902 33.2225 104.371 31.6309 104.574C31.3596 104.609 31.0847 104.626 30.8087 104.626ZM8.41766 8.5926C7.53398 8.5926 6.6591 8.68253 5.8085 8.93419C3.90162 9.49954 2.79573 10.6142 2.42676 12.3428C2.07639 13.9856 2.46293 15.8982 2.83966 17.3808C3.42825 19.6897 3.73263 21.5568 3.79671 23.258C3.88095 25.4754 3.55642 27.388 2.80555 29.1057C2.51668 29.7594 2.16062 30.392 1.81646 31.0043C1.35188 31.8312 0.871287 32.6854 0.553474 33.597C-0.97306 37.9678 1.3033 42.7226 3.13266 46.543C9.06672 58.9506 14.0551 72.197 17.9587 85.9151C18.2755 87.0277 18.5887 88.1667 18.891 89.2669C19.3638 90.9862 19.8522 92.7649 20.3731 94.5079C20.739 95.7337 21.2718 96.9776 21.958 98.2049C22.7099 99.5418 23.5228 100.644 24.4437 101.575C26.6017 103.754 29.2171 104.827 31.6247 104.523C33.2091 104.321 34.6803 103.854 35.996 103.136C39.801 101.058 43.1905 98.2695 46.4678 95.5719C54.4157 89.0322 62.1393 82.5561 69.2583 75.2438C73.3015 71.0906 76.3081 67.545 78.7183 64.0858C81.7822 59.6902 83.8865 55.4273 85.1526 51.0544C85.9257 48.3822 86.1076 46.2661 85.7241 44.3948C85.1402 41.5376 83.2344 39.2391 81.3905 37.0169C80.7358 36.2278 80.0588 35.4113 79.449 34.5799C76.2301 30.1946 74.4333 24.5551 74.5185 19.1073C74.5387 17.818 74.6606 16.5204 74.779 15.2656C74.9128 13.8399 75.0513 12.366 75.04 10.9046C75.0214 8.63033 74.5702 5.43929 72.5295 3.15673C70.9554 1.39661 68.5612 0.308304 65.7877 0.0922943C63.2814 -0.100977 60.8226 0.405459 58.5178 0.941348C56.4306 1.42711 54.3015 1.98935 52.2422 2.53351L51.4293 2.74796C49.5586 3.24199 47.6621 3.76343 45.8276 4.26779C40.4118 5.75764 34.8111 7.29811 29.3044 8.26499C23.1352 9.34813 17.7076 9.58687 12.7146 8.99362C12.4076 8.95744 12.0945 8.91716 11.7911 8.8784C10.6759 8.73732 9.54008 8.5926 8.41766 8.5926Z" fill="#FFBFBD"/>
</svg>
