<svg width="198" height="208" viewBox="0 0 198 208" fill="none" xmlns="http://www.w3.org/2000/svg">
<path d="M197.188 3.578C197.188 5.55359 195.586 7.156 193.61 7.156C191.635 7.156 190.032 5.55359 190.032 3.578C190.032 1.6024 191.635 0 193.61 0C195.586 0 197.188 1.6024 197.188 3.578Z" fill="#B83934"/>
<path d="M173.434 3.578C173.434 5.55359 171.832 7.156 169.856 7.156C167.88 7.156 166.278 5.55359 166.278 3.578C166.278 1.6024 167.88 0 169.856 0C171.832 0 173.434 1.6024 173.434 3.578Z" fill="#B83934"/>
<path d="M149.68 3.578C149.68 5.55359 148.078 7.156 146.102 7.156C144.127 7.156 142.524 5.55359 142.524 3.578C142.524 1.6024 144.127 0 146.102 0C148.078 0 149.68 1.6024 149.68 3.578Z" fill="#B83934"/>
<path d="M125.926 3.578C125.926 5.55359 124.324 7.156 122.348 7.156C120.372 7.156 118.77 5.55359 118.77 3.578C118.77 1.6024 120.372 0 122.348 0C124.324 0 125.926 1.6024 125.926 3.578Z" fill="#B83934"/>
<path d="M102.172 3.578C102.172 5.55359 100.569 7.156 98.5939 7.156C96.6183 7.156 95.0159 5.55359 95.0159 3.578C95.0159 1.6024 96.6183 0 98.5939 0C100.569 0 102.172 1.6024 102.172 3.578Z" fill="#B83934"/>
<path d="M78.418 3.578C78.418 5.55359 76.8156 7.156 74.84 7.156C72.8644 7.156 71.262 5.55359 71.262 3.578C71.262 1.6024 72.8644 0 74.84 0C76.8156 0 78.418 1.6024 78.418 3.578Z" fill="#B83934"/>
<path d="M54.6641 3.578C54.6641 5.55359 53.0617 7.156 51.0861 7.156C49.1105 7.156 47.5081 5.55359 47.5081 3.578C47.5081 1.6024 49.1105 0 51.0861 0C53.0617 0 54.6641 1.6024 54.6641 3.578Z" fill="#B83934"/>
<path d="M30.9101 3.578C30.9101 5.55359 29.3077 7.156 27.3321 7.156C25.3565 7.156 23.7542 5.55359 23.7542 3.578C23.7542 1.6024 25.3565 0 27.3321 0C29.3103 0 30.9101 1.6024 30.9101 3.578Z" fill="#B83934"/>
<path d="M7.15596 3.578C7.15596 5.55359 5.55359 7.156 3.578 7.156C1.6024 7.156 0 5.55359 0 3.578C0 1.6024 1.6024 0 3.578 0C5.5562 0 7.15596 1.6024 7.15596 3.578Z" fill="#B83934"/>
<path d="M197.188 28.6162C197.188 30.5918 195.586 32.1942 193.61 32.1942C191.635 32.1942 190.032 30.5918 190.032 28.6162C190.032 26.6406 191.635 25.0382 193.61 25.0382C195.586 25.0408 197.188 26.6406 197.188 28.6162Z" fill="#B83934"/>
<path d="M173.434 28.6162C173.434 30.5918 171.832 32.1942 169.856 32.1942C167.88 32.1942 166.278 30.5918 166.278 28.6162C166.278 26.6406 167.88 25.0382 169.856 25.0382C171.832 25.0382 173.434 26.6406 173.434 28.6162Z" fill="#B83934"/>
<path d="M149.68 28.6162C149.68 30.5918 148.078 32.1942 146.102 32.1942C144.127 32.1942 142.524 30.5918 142.524 28.6162C142.524 26.6406 144.127 25.0382 146.102 25.0382C148.078 25.0382 149.68 26.6406 149.68 28.6162Z" fill="#B83934"/>
<path d="M125.926 28.6162C125.926 30.5918 124.324 32.1942 122.348 32.1942C120.372 32.1942 118.77 30.5918 118.77 28.6162C118.77 26.6406 120.372 25.0382 122.348 25.0382C124.324 25.0382 125.926 26.6406 125.926 28.6162Z" fill="#B83934"/>
<path d="M102.172 28.6162C102.172 30.5918 100.569 32.1942 98.5939 32.1942C96.6183 32.1942 95.0159 30.5918 95.0159 28.6162C95.0159 26.6406 96.6183 25.0382 98.5939 25.0382C100.569 25.0408 102.172 26.6406 102.172 28.6162Z" fill="#B83934"/>
<path d="M78.418 28.6162C78.418 30.5918 76.8156 32.1942 74.84 32.1942C72.8644 32.1942 71.262 30.5918 71.262 28.6162C71.262 26.6406 72.8644 25.0382 74.84 25.0382C76.8156 25.0408 78.418 26.6406 78.418 28.6162Z" fill="#B83934"/>
<path d="M54.6641 28.6162C54.6641 30.5918 53.0617 32.1942 51.0861 32.1942C49.1105 32.1942 47.5081 30.5918 47.5081 28.6162C47.5081 26.6406 49.1105 25.0382 51.0861 25.0382C53.0617 25.0382 54.6641 26.6406 54.6641 28.6162Z" fill="#B83934"/>
<path d="M30.9101 28.6162C30.9101 30.5918 29.3077 32.1942 27.3321 32.1942C25.3565 32.1942 23.7542 30.5918 23.7542 28.6162C23.7542 26.6406 25.3565 25.0382 27.3321 25.0382C29.3103 25.0408 30.9101 26.6406 30.9101 28.6162Z" fill="#B83934"/>
<path d="M7.15596 28.6162C7.15596 30.5918 5.55359 32.1942 3.578 32.1942C1.6024 32.1942 0 30.5918 0 28.6162C0 26.6406 1.6024 25.0382 3.578 25.0382C5.5562 25.0408 7.15596 26.6406 7.15596 28.6162Z" fill="#B83934"/>
<path d="M193.61 57.2349C195.586 57.2349 197.188 55.6329 197.188 53.6569C197.188 51.6808 195.586 50.0789 193.61 50.0789C191.634 50.0789 190.032 51.6808 190.032 53.6569C190.032 55.6329 191.634 57.2349 193.61 57.2349Z" fill="#B83934"/>
<path d="M173.434 53.6569C173.434 55.6325 171.832 57.2349 169.856 57.2349C167.88 57.2349 166.278 55.6325 166.278 53.6569C166.278 51.6813 167.88 50.0789 169.856 50.0789C171.832 50.0789 173.434 51.6813 173.434 53.6569Z" fill="#B83934"/>
<path d="M146.102 57.2349C148.078 57.2349 149.68 55.6329 149.68 53.6569C149.68 51.6808 148.078 50.0789 146.102 50.0789C144.126 50.0789 142.524 51.6808 142.524 53.6569C142.524 55.6329 144.126 57.2349 146.102 57.2349Z" fill="#B83934"/>
<path d="M125.926 53.6569C125.926 55.6325 124.324 57.2349 122.348 57.2349C120.372 57.2349 118.77 55.6325 118.77 53.6569C118.77 51.6813 120.372 50.0789 122.348 50.0789C124.324 50.0789 125.926 51.6813 125.926 53.6569Z" fill="#B83934"/>
<path d="M102.172 53.6569C102.172 55.6325 100.569 57.2349 98.5939 57.2349C96.6183 57.2349 95.0159 55.6325 95.0159 53.6569C95.0159 51.6813 96.6183 50.0789 98.5939 50.0789C100.569 50.0789 102.172 51.6813 102.172 53.6569Z" fill="#B83934"/>
<path d="M74.84 57.2349C76.816 57.2349 78.418 55.6329 78.418 53.6569C78.418 51.6808 76.816 50.0789 74.84 50.0789C72.8639 50.0789 71.262 51.6808 71.262 53.6569C71.262 55.6329 72.8639 57.2349 74.84 57.2349Z" fill="#B83934"/>
<path d="M51.0861 57.2349C53.0621 57.2349 54.6641 55.6329 54.6641 53.6569C54.6641 51.6808 53.0621 50.0789 51.0861 50.0789C49.11 50.0789 47.5081 51.6808 47.5081 53.6569C47.5081 55.6329 49.11 57.2349 51.0861 57.2349Z" fill="#B83934"/>
<path d="M30.9101 53.6569C30.9101 55.6325 29.3077 57.2349 27.3321 57.2349C25.3565 57.2349 23.7542 55.6325 23.7542 53.6569C23.7542 51.6813 25.3565 50.0789 27.3321 50.0789C29.3103 50.0789 30.9101 51.6813 30.9101 53.6569Z" fill="#B83934"/>
<path d="M7.15596 53.6569C7.15596 55.6325 5.55359 57.2349 3.578 57.2349C1.6024 57.2349 0 55.6325 0 53.6569C0 51.6813 1.6024 50.0789 3.578 50.0789C5.5562 50.0789 7.15596 51.6813 7.15596 53.6569Z" fill="#B83934"/>
<path d="M197.188 78.6977C197.188 80.6733 195.586 82.2757 193.61 82.2757C191.635 82.2757 190.032 80.6733 190.032 78.6977C190.032 76.7221 191.635 75.1197 193.61 75.1197C195.586 75.1197 197.188 76.7221 197.188 78.6977Z" fill="#B83934"/>
<path d="M173.434 78.6977C173.434 80.6733 171.832 82.2757 169.856 82.2757C167.88 82.2757 166.278 80.6733 166.278 78.6977C166.278 76.7221 167.88 75.1197 169.856 75.1197C171.832 75.1197 173.434 76.7221 173.434 78.6977Z" fill="#B83934"/>
<path d="M149.68 78.6977C149.68 80.6733 148.078 82.2757 146.102 82.2757C144.127 82.2757 142.524 80.6733 142.524 78.6977C142.524 76.7221 144.127 75.1197 146.102 75.1197C148.078 75.1197 149.68 76.7221 149.68 78.6977Z" fill="#B83934"/>
<path d="M125.926 78.6977C125.926 80.6733 124.324 82.2757 122.348 82.2757C120.372 82.2757 118.77 80.6733 118.77 78.6977C118.77 76.7221 120.372 75.1197 122.348 75.1197C124.324 75.1197 125.926 76.7221 125.926 78.6977Z" fill="#B83934"/>
<path d="M102.172 78.6977C102.172 80.6733 100.569 82.2757 98.5939 82.2757C96.6183 82.2757 95.0159 80.6733 95.0159 78.6977C95.0159 76.7221 96.6183 75.1197 98.5939 75.1197C100.569 75.1197 102.172 76.7221 102.172 78.6977Z" fill="#B83934"/>
<path d="M78.418 78.6977C78.418 80.6733 76.8156 82.2757 74.84 82.2757C72.8644 82.2757 71.262 80.6733 71.262 78.6977C71.262 76.7221 72.8644 75.1197 74.84 75.1197C76.8156 75.1197 78.418 76.7221 78.418 78.6977Z" fill="#B83934"/>
<path d="M54.6641 78.6977C54.6641 80.6733 53.0617 82.2757 51.0861 82.2757C49.1105 82.2757 47.5081 80.6733 47.5081 78.6977C47.5081 76.7221 49.1105 75.1197 51.0861 75.1197C53.0617 75.1197 54.6641 76.7221 54.6641 78.6977Z" fill="#B83934"/>
<path d="M30.9101 78.6977C30.9101 80.6733 29.3077 82.2757 27.3321 82.2757C25.3565 82.2757 23.7542 80.6733 23.7542 78.6977C23.7542 76.7221 25.3565 75.1197 27.3321 75.1197C29.3103 75.1197 30.9101 76.7221 30.9101 78.6977Z" fill="#B83934"/>
<path d="M7.15596 78.6977C7.15596 80.6733 5.55359 82.2757 3.578 82.2757C1.6024 82.2757 0 80.6733 0 78.6977C0 76.7221 1.6024 75.1197 3.578 75.1197C5.5562 75.1197 7.15596 76.7221 7.15596 78.6977Z" fill="#B83934"/>
<path d="M197.188 103.736C197.188 105.711 195.586 107.314 193.61 107.314C191.635 107.314 190.032 105.711 190.032 103.736C190.032 101.76 191.635 100.158 193.61 100.158C195.586 100.16 197.188 101.76 197.188 103.736Z" fill="#B83934"/>
<path d="M173.434 103.736C173.434 105.711 171.832 107.314 169.856 107.314C167.88 107.314 166.278 105.711 166.278 103.736C166.278 101.76 167.88 100.158 169.856 100.158C171.832 100.158 173.434 101.76 173.434 103.736Z" fill="#B83934"/>
<path d="M149.68 103.736C149.68 105.711 148.078 107.314 146.102 107.314C144.127 107.314 142.524 105.711 142.524 103.736C142.524 101.76 144.127 100.158 146.102 100.158C148.078 100.158 149.68 101.76 149.68 103.736Z" fill="#B83934"/>
<path d="M125.926 103.736C125.926 105.711 124.324 107.314 122.348 107.314C120.372 107.314 118.77 105.711 118.77 103.736C118.77 101.76 120.372 100.158 122.348 100.158C124.324 100.158 125.926 101.76 125.926 103.736Z" fill="#B83934"/>
<path d="M102.172 103.736C102.172 105.711 100.569 107.314 98.5939 107.314C96.6183 107.314 95.0159 105.711 95.0159 103.736C95.0159 101.76 96.6183 100.158 98.5939 100.158C100.569 100.16 102.172 101.76 102.172 103.736Z" fill="#B83934"/>
<path d="M78.418 103.736C78.418 105.711 76.8156 107.314 74.84 107.314C72.8644 107.314 71.262 105.711 71.262 103.736C71.262 101.76 72.8644 100.158 74.84 100.158C76.8156 100.16 78.418 101.76 78.418 103.736Z" fill="#B83934"/>
<path d="M54.6641 103.736C54.6641 105.711 53.0617 107.314 51.0861 107.314C49.1105 107.314 47.5081 105.711 47.5081 103.736C47.5081 101.76 49.1105 100.158 51.0861 100.158C53.0617 100.158 54.6641 101.76 54.6641 103.736Z" fill="#B83934"/>
<path d="M30.9101 103.736C30.9101 105.711 29.3077 107.314 27.3321 107.314C25.3565 107.314 23.7542 105.711 23.7542 103.736C23.7542 101.76 25.3565 100.158 27.3321 100.158C29.3103 100.16 30.9101 101.76 30.9101 103.736Z" fill="#B83934"/>
<path d="M7.15596 103.736C7.15596 105.711 5.55359 107.314 3.578 107.314C1.6024 107.314 0 105.711 0 103.736C0 101.76 1.6024 100.158 3.578 100.158C5.5562 100.16 7.15596 101.76 7.15596 103.736Z" fill="#B83934"/>
<path d="M193.61 132.355C195.586 132.355 197.188 130.753 197.188 128.777C197.188 126.8 195.586 125.199 193.61 125.199C191.634 125.199 190.032 126.8 190.032 128.777C190.032 130.753 191.634 132.355 193.61 132.355Z" fill="#B83934"/>
<path d="M173.434 128.777C173.434 130.752 171.832 132.355 169.856 132.355C167.88 132.355 166.278 130.752 166.278 128.777C166.278 126.801 167.88 125.199 169.856 125.199C171.832 125.199 173.434 126.801 173.434 128.777Z" fill="#B83934"/>
<path d="M146.102 132.355C148.078 132.355 149.68 130.753 149.68 128.777C149.68 126.8 148.078 125.199 146.102 125.199C144.126 125.199 142.524 126.8 142.524 128.777C142.524 130.753 144.126 132.355 146.102 132.355Z" fill="#B83934"/>
<path d="M125.926 128.777C125.926 130.752 124.324 132.355 122.348 132.355C120.372 132.355 118.77 130.752 118.77 128.777C118.77 126.801 120.372 125.199 122.348 125.199C124.324 125.199 125.926 126.801 125.926 128.777Z" fill="#B83934"/>
<path d="M102.172 128.777C102.172 130.752 100.569 132.355 98.5939 132.355C96.6183 132.355 95.0159 130.752 95.0159 128.777C95.0159 126.801 96.6183 125.199 98.5939 125.199C100.569 125.199 102.172 126.801 102.172 128.777Z" fill="#B83934"/>
<path d="M74.84 132.355C76.816 132.355 78.418 130.753 78.418 128.777C78.418 126.8 76.816 125.199 74.84 125.199C72.8639 125.199 71.262 126.8 71.262 128.777C71.262 130.753 72.8639 132.355 74.84 132.355Z" fill="#B83934"/>
<path d="M51.0861 132.355C53.0621 132.355 54.6641 130.753 54.6641 128.777C54.6641 126.8 53.0621 125.199 51.0861 125.199C49.11 125.199 47.5081 126.8 47.5081 128.777C47.5081 130.753 49.11 132.355 51.0861 132.355Z" fill="#B83934"/>
<path d="M30.9101 128.777C30.9101 130.752 29.3077 132.355 27.3321 132.355C25.3565 132.355 23.7542 130.752 23.7542 128.777C23.7542 126.801 25.3565 125.199 27.3321 125.199C29.3103 125.199 30.9101 126.801 30.9101 128.777Z" fill="#B83934"/>
<path d="M7.15596 128.777C7.15596 130.752 5.55359 132.355 3.578 132.355C1.6024 132.355 0 130.752 0 128.777C0 126.801 1.6024 125.199 3.578 125.199C5.5562 125.199 7.15596 126.801 7.15596 128.777Z" fill="#B83934"/>
<path d="M197.188 153.817C197.188 155.793 195.586 157.395 193.61 157.395C191.635 157.395 190.032 155.793 190.032 153.817C190.032 151.842 191.635 150.239 193.61 150.239C195.586 150.239 197.188 151.842 197.188 153.817Z" fill="#B83934"/>
<path d="M173.434 153.817C173.434 155.793 171.832 157.395 169.856 157.395C167.88 157.395 166.278 155.793 166.278 153.817C166.278 151.842 167.88 150.239 169.856 150.239C171.832 150.239 173.434 151.842 173.434 153.817Z" fill="#B83934"/>
<path d="M149.68 153.817C149.68 155.793 148.078 157.395 146.102 157.395C144.127 157.395 142.524 155.793 142.524 153.817C142.524 151.842 144.127 150.239 146.102 150.239C148.078 150.239 149.68 151.842 149.68 153.817Z" fill="#B83934"/>
<path d="M125.926 153.817C125.926 155.793 124.324 157.395 122.348 157.395C120.372 157.395 118.77 155.793 118.77 153.817C118.77 151.842 120.372 150.239 122.348 150.239C124.324 150.239 125.926 151.842 125.926 153.817Z" fill="#B83934"/>
<path d="M102.172 153.817C102.172 155.793 100.569 157.395 98.5939 157.395C96.6183 157.395 95.0159 155.793 95.0159 153.817C95.0159 151.842 96.6183 150.239 98.5939 150.239C100.569 150.239 102.172 151.842 102.172 153.817Z" fill="#B83934"/>
<path d="M78.418 153.817C78.418 155.793 76.8156 157.395 74.84 157.395C72.8644 157.395 71.262 155.793 71.262 153.817C71.262 151.842 72.8644 150.239 74.84 150.239C76.8156 150.239 78.418 151.842 78.418 153.817Z" fill="#B83934"/>
<path d="M54.6641 153.817C54.6641 155.793 53.0617 157.395 51.0861 157.395C49.1105 157.395 47.5081 155.793 47.5081 153.817C47.5081 151.842 49.1105 150.239 51.0861 150.239C53.0617 150.239 54.6641 151.842 54.6641 153.817Z" fill="#B83934"/>
<path d="M30.9101 153.817C30.9101 155.793 29.3077 157.395 27.3321 157.395C25.3565 157.395 23.7542 155.793 23.7542 153.817C23.7542 151.842 25.3565 150.239 27.3321 150.239C29.3103 150.239 30.9101 151.842 30.9101 153.817Z" fill="#B83934"/>
<path d="M7.15596 153.817C7.15596 155.793 5.55359 157.395 3.578 157.395C1.6024 157.395 0 155.793 0 153.817C0 151.842 1.6024 150.239 3.578 150.239C5.5562 150.239 7.15596 151.842 7.15596 153.817Z" fill="#B83934"/>
<path d="M197.188 178.855C197.188 180.831 195.586 182.433 193.61 182.433C191.635 182.433 190.032 180.831 190.032 178.855C190.032 176.88 191.635 175.277 193.61 175.277C195.586 175.277 197.188 176.88 197.188 178.855Z" fill="#B83934"/>
<path d="M173.434 178.855C173.434 180.831 171.832 182.433 169.856 182.433C167.88 182.433 166.278 180.831 166.278 178.855C166.278 176.88 167.88 175.277 169.856 175.277C171.832 175.277 173.434 176.88 173.434 178.855Z" fill="#B83934"/>
<path d="M149.68 178.855C149.68 180.831 148.078 182.433 146.102 182.433C144.127 182.433 142.524 180.831 142.524 178.855C142.524 176.88 144.127 175.277 146.102 175.277C148.078 175.277 149.68 176.88 149.68 178.855Z" fill="#B83934"/>
<path d="M125.926 178.855C125.926 180.831 124.324 182.433 122.348 182.433C120.372 182.433 118.77 180.831 118.77 178.855C118.77 176.88 120.372 175.277 122.348 175.277C124.324 175.277 125.926 176.88 125.926 178.855Z" fill="#B83934"/>
<path d="M102.172 178.855C102.172 180.831 100.569 182.433 98.5939 182.433C96.6183 182.433 95.0159 180.831 95.0159 178.855C95.0159 176.88 96.6183 175.277 98.5939 175.277C100.569 175.277 102.172 176.88 102.172 178.855Z" fill="#B83934"/>
<path d="M78.418 178.855C78.418 180.831 76.8156 182.433 74.84 182.433C72.8644 182.433 71.262 180.831 71.262 178.855C71.262 176.88 72.8644 175.277 74.84 175.277C76.8156 175.277 78.418 176.88 78.418 178.855Z" fill="#B83934"/>
<path d="M54.6641 178.855C54.6641 180.831 53.0617 182.433 51.0861 182.433C49.1105 182.433 47.5081 180.831 47.5081 178.855C47.5081 176.88 49.1105 175.277 51.0861 175.277C53.0617 175.277 54.6641 176.88 54.6641 178.855Z" fill="#B83934"/>
<path d="M30.9101 178.855C30.9101 180.831 29.3077 182.433 27.3321 182.433C25.3565 182.433 23.7542 180.831 23.7542 178.855C23.7542 176.88 25.3565 175.277 27.3321 175.277C29.3103 175.277 30.9101 176.88 30.9101 178.855Z" fill="#B83934"/>
<path d="M7.15596 178.855C7.15596 180.831 5.55359 182.433 3.578 182.433C1.6024 182.433 0 180.831 0 178.855C0 176.88 1.6024 175.277 3.578 175.277C5.5562 175.277 7.15596 176.88 7.15596 178.855Z" fill="#B83934"/>
<path d="M197.188 203.896C197.188 205.872 195.586 207.474 193.61 207.474C191.635 207.474 190.032 205.872 190.032 203.896C190.032 201.92 191.635 200.318 193.61 200.318C195.586 200.318 197.188 201.92 197.188 203.896Z" fill="#B83934"/>
<path d="M173.434 203.896C173.434 205.872 171.832 207.474 169.856 207.474C167.88 207.474 166.278 205.872 166.278 203.896C166.278 201.92 167.88 200.318 169.856 200.318C171.832 200.318 173.434 201.92 173.434 203.896Z" fill="#B83934"/>
<path d="M149.68 203.896C149.68 205.872 148.078 207.474 146.102 207.474C144.127 207.474 142.524 205.872 142.524 203.896C142.524 201.92 144.127 200.318 146.102 200.318C148.078 200.318 149.68 201.92 149.68 203.896Z" fill="#B83934"/>
<path d="M125.926 203.896C125.926 205.872 124.324 207.474 122.348 207.474C120.372 207.474 118.77 205.872 118.77 203.896C118.77 201.92 120.372 200.318 122.348 200.318C124.324 200.318 125.926 201.92 125.926 203.896Z" fill="#B83934"/>
<path d="M102.172 203.896C102.172 205.872 100.569 207.474 98.5939 207.474C96.6183 207.474 95.0159 205.872 95.0159 203.896C95.0159 201.92 96.6183 200.318 98.5939 200.318C100.569 200.318 102.172 201.92 102.172 203.896Z" fill="#B83934"/>
<path d="M78.418 203.896C78.418 205.872 76.8156 207.474 74.84 207.474C72.8644 207.474 71.262 205.872 71.262 203.896C71.262 201.92 72.8644 200.318 74.84 200.318C76.8156 200.318 78.418 201.92 78.418 203.896Z" fill="#B83934"/>
<path d="M54.6641 203.896C54.6641 205.872 53.0617 207.474 51.0861 207.474C49.1105 207.474 47.5081 205.872 47.5081 203.896C47.5081 201.92 49.1105 200.318 51.0861 200.318C53.0617 200.318 54.6641 201.92 54.6641 203.896Z" fill="#B83934"/>
<path d="M30.9101 203.896C30.9101 205.872 29.3077 207.474 27.3321 207.474C25.3565 207.474 23.7542 205.872 23.7542 203.896C23.7542 201.92 25.3565 200.318 27.3321 200.318C29.3103 200.318 30.9101 201.92 30.9101 203.896Z" fill="#B83934"/>
<path d="M7.15596 203.896C7.15596 205.872 5.55359 207.474 3.578 207.474C1.6024 207.474 0 205.872 0 203.896C0 201.92 1.6024 200.318 3.578 200.318C5.5562 200.318 7.15596 201.92 7.15596 203.896Z" fill="#B83934"/>
</svg>
