<svg width="19" height="18" viewBox="0 0 19 18" fill="none" xmlns="http://www.w3.org/2000/svg">
<path d="M8.90519 0.138144C8.96506 -0.0461178 9.22574 -0.0461176 9.28561 0.138144L11.2956 6.32437C11.3224 6.40677 11.3992 6.46256 11.4858 6.46256H17.9904C18.1842 6.46256 18.2647 6.71049 18.108 6.82437L12.8457 10.6477C12.7756 10.6986 12.7462 10.7889 12.773 10.8713L14.783 17.0575C14.8429 17.2418 14.632 17.395 14.4753 17.2811L9.21295 13.4578C9.14286 13.4069 9.04794 13.4069 8.97784 13.4578L3.71553 17.2811C3.55878 17.395 3.34789 17.2418 3.40776 17.0575L5.41778 10.8713C5.44456 10.7889 5.41523 10.6986 5.34513 10.6477L0.0828125 6.82437C-0.0739301 6.71049 0.00662518 6.46256 0.20037 6.46256H6.70495C6.79159 6.46256 6.86839 6.40677 6.89516 6.32437L8.90519 0.138144Z" fill="#FFC800"/>
</svg>
